<?xml version="1.0" encoding="utf-8"?>
<!-- Generator: Adobe Illustrator 17.0.0, SVG Export Plug-In . SVG Version: 6.00 Build 0)  -->
<!DOCTYPE svg PUBLIC "-//W3C//DTD SVG 1.1//EN" "http://www.w3.org/Graphics/SVG/1.1/DTD/svg11.dtd">
<svg version="1.1" id="Layer_1" xmlns="http://www.w3.org/2000/svg" xmlns:xlink="http://www.w3.org/1999/xlink" x="0px" y="0px"
	 width="505.202px" height="199.812px" viewBox="0 0 505.202 199.812" enable-background="new 0 0 505.202 199.812"
	 xml:space="preserve">
<g>
	<path fill="#FFFFFF" d="M55.303,100.104l-6.332,0.891c-1.494,0.218-2.846,1.586-3.059,2.653l-9.177,51.75l6.403-0.901l2.489-13.029
		l13.16-1.854l2.564,12.326l6.403-0.901l-9.394-49.141C58.147,100.824,56.798,99.901,55.303,100.104z M46.553,135.457l4.766-28.049
		c0.072-0.281,0.142-0.87,0.711-0.952l0.213-0.031c0.57-0.083,0.711,0.745,0.711,0.745l4.91,26.688L46.553,135.457z"/>
	<polygon fill="#FFFFFF" points="87.673,95.953 87.673,148.232 94.077,147.33 94.077,121.387 105.812,119.74 105.812,145.684 
		112.216,144.782 112.216,92.504 105.812,93.404 105.812,113.92 94.077,115.579 94.077,95.052 	"/>
	<path fill="#FFFFFF" d="M121.465,91.204v43.519c0,5.229,4.553,8.773,10.244,7.977l4.27-0.598
		c5.691-0.806,10.243-5.631,10.243-10.852V87.724l-6.403,0.901v43.518c0,2.105-1.564,3.76-3.84,4.075l-4.27,0.606
		c-2.276,0.315-3.84-0.899-3.84-2.989V90.303L121.465,91.204z"/>
	<polygon fill="#FFFFFF" points="162.232,91.362 172.331,136.342 183.575,134.752 183.575,82.474 177.172,83.374 177.172,129.777 
		176.814,129.83 166.854,84.83 155.472,86.425 155.472,138.703 161.875,137.802 161.875,91.398 	"/>
	<path fill="#FFFFFF" d="M218.291,120.461v-33.84c0-5.229-4.554-8.384-10.244-7.587l-14.513,2.035v52.295l14.513-2.051
		C213.737,130.516,218.291,125.691,218.291,120.461z M211.888,121.362c0,2.092-1.563,3.76-3.84,4.075l-8.11,1.135V86.061l8.11-1.148
		c2.277-0.318,3.84,0.574,3.84,2.596V121.362z"/>
	<path fill="#FFFFFF" d="M251.443,90.185v-9.406c0-4.312-3.84-7.3-8.536-6.647l-15.724,2.212v52.293l6.403-0.9v-24.382l8.894-1.247
		c1.92,0.517,3.061,1.793,3.061,4.463v19.479l6.403-0.893v-19.475c0-3.6-2.49-6.326-5.977-7.006
		C249.166,96.918,251.443,93.58,251.443,90.185z M244.97,91.231c0,2.412-0.499,3.928-2.42,4.973l-8.963,1.259V81.265l9.037-1.269
		c1.281-0.188,2.347,0.521,2.347,1.694V91.231z"/>
	<polygon fill="#FFFFFF" points="280.257,74.771 280.257,68.879 259.766,71.77 259.766,124.049 280.257,121.174 280.257,115.282 
		266.169,117.271 266.169,97.271 278.336,95.562 278.336,89.67 266.169,91.384 266.169,76.744 	"/>
	<path fill="#FFFFFF" d="M311.419,107.387V73.53c0-5.229-4.554-8.384-10.248-7.586l-14.512,2.038v52.29l14.512-2.036
		C306.865,117.425,311.419,112.615,311.419,107.387z M305.016,108.287c0,2.09-1.567,3.743-3.845,4.06l-8.108,1.148V72.969
		l8.108-1.134c2.277-0.332,3.845,0.56,3.845,2.597V108.287z"/>
	<polygon fill="#FFFFFF" points="385.922,59.916 385.922,54.041 365.433,56.915 365.433,109.193 385.922,106.319 385.922,100.444 
		371.836,102.417 371.836,82.416 384.002,80.708 384.002,74.832 371.836,76.541 371.836,61.902 	"/>
	<path fill="#FFFFFF" d="M410.567,90.172l2.562,12.326l6.402-0.9l-9.393-49.141c-0.215-1.072-1.563-1.995-3.058-1.794l-6.333,0.891
		c-1.494,0.217-2.848,1.586-3.061,2.654l-9.176,51.75l6.403-0.901l2.489-13.029L410.567,90.172z M403.095,57.968
		c0.074-0.282,0.145-0.869,0.714-0.952l0.259-0.038c0.57-0.083,0.665,0.751,0.665,0.751l4.91,26.703l-11.313,1.586L403.095,57.968z"
		/>
	<path fill="#FFFFFF" d="M449.481,62.359v-9.417c0-4.312-3.84-7.3-8.537-6.638l-15.723,2.203V100.8l6.402-0.9V75.518l8.895-1.248
		c1.92,0.518,3.059,1.794,3.059,4.478v19.474l6.405-0.9V77.846c0-3.6-2.491-6.326-5.978-7.006
		C447.204,69.082,449.481,65.761,449.481,62.359z M443.009,63.396c0,2.426-0.496,3.927-2.42,4.987l-8.965,1.259V53.428l9.037-1.269
		c1.281-0.185,2.348,0.523,2.348,1.695V63.396z"/>
	<path fill="#FFFFFF" d="M456.028,78.033v9.678c0,5.229,4.553,8.774,10.243,7.977l3.987-0.564
		c5.689-0.797,10.243-5.622,10.243-10.852v-5.03c0-8.501-3.984-12.775-9.391-15.024c-4.98-2.041-8.681-3.419-8.681-8.326v-3.583
		c0-2.089,1.563-3.76,3.841-4.076l3.987-0.564c2.275-0.315,3.84,0.899,3.84,2.988l6.403-0.887c0-5.228-4.554-8.772-10.243-7.976
		l-3.987,0.564c-5.69,0.798-10.243,5.622-10.243,10.852v3.583c0,5.566,3.059,9.383,8.039,11.424
		c5.691,2.343,10.031,4.085,10.031,11.915v5.042c0,2.089-1.564,3.743-3.84,4.062l-3.987,0.562c-2.277,0.316-3.841-0.898-3.841-2.986
		v-9.678L456.028,78.033z"/>
	<path fill="#FFFFFF" d="M344.798,112.104l3.162-0.444V97.278l12.236-39.632l-6.398,0.9l-8.303,27.137c0,0-0.174,0.574-0.5,0.621
		l-0.399,0.058c-0.327,0.048-0.501-0.474-0.501-0.474l-8.297-24.815l-6.404,0.901l12.236,36.193v14.381L344.798,112.104z"/>
	<polygon fill="#FFFFFF" points="5.202,81.11 5.202,82.479 505.202,12.208 505.202,10.84 	"/>
	<polygon fill="#FFFFFF" points="66.177,168.195 66.177,169.564 505.202,107.862 505.202,106.493 	"/>
	<polygon fill="#FFFFFF" points="5.202,187.605 5.202,188.973 505.202,118.702 505.202,117.334 	"/>
	<polygon fill="#FFFFFF" points="66.177,83.382 5.202,91.951 5.202,93.319 66.177,84.75 	"/>
	<polygon fill="#FFFFFF" points="5.202,199.812 66.177,191.243 66.177,189.875 5.202,198.444 	"/>
	<polygon fill="#FFFFFF" points="444.226,8.569 444.226,9.939 505.202,1.368 505.202,0 	"/>
</g>
</svg>
