<?xml version="1.0" encoding="utf-8"?>
<!-- Generator: Adobe Illustrator 17.0.0, SVG Export Plug-In . SVG Version: 6.00 Build 0)  -->
<!DOCTYPE svg PUBLIC "-//W3C//DTD SVG 1.1//EN" "http://www.w3.org/Graphics/SVG/1.1/DTD/svg11.dtd">
<svg version="1.1" id="Layer_1" xmlns="http://www.w3.org/2000/svg" xmlns:xlink="http://www.w3.org/1999/xlink" x="0px" y="0px"
	 width="100px" height="95.592px" viewBox="0 0 100 95.592" enable-background="new 0 0 100 95.592" xml:space="preserve">
<g>
	<path fill="#FFFFFF" d="M38.879,54.409h2.043c0.709,0,1.15-0.401,1.15-1.036V36.729c0-0.63-0.441-1.027-1.15-1.027h-2.043
		c-0.703,0-1.145,0.396-1.145,1.027v16.645C37.734,54.008,38.176,54.409,38.879,54.409z"/>
	<path fill="#FFFFFF" d="M70.826,40.939v-4.406c0-0.378-0.357-0.677-0.816-0.677h-3.916v6.959h3.828
		C70.594,42.521,70.826,42.054,70.826,40.939z"/>
	<path fill="#FFFFFF" d="M24.455,54.409h2.041c0.711,0,1.15-0.401,1.15-1.036V36.729c0-0.63-0.439-1.027-1.15-1.027h-2.041
		c-0.709,0-1.146,0.396-1.146,1.027v16.645C23.309,54.008,23.746,54.409,24.455,54.409z"/>
	<path fill="#FFFFFF" d="M95.594,0H8.805C6.371,0,4.402,1.975,4.402,4.401L0,91.19c0,2.432,1.977,4.402,4.402,4.402h86.789
		c2.432,0,4.402-1.97,4.402-4.402L100,4.401C100,1.975,98.02,0,95.594,0z M62.588,32.625h7.553c2.326,0,4.221,1.75,4.221,3.907
		v4.345c0,1.457-0.826,2.796-2.152,3.553c1.447,0.704,2.381,2.109,2.381,3.655v9.283h-3.502v-9.283c0-1.023-0.373-1.643-1.199-2.008
		h-3.795v11.291h-3.506V32.625z M50.158,32.625l3.908,11.894c0.004,0.023,0.018,0.055,0.027,0.065h0.07
		c0.018-0.018,0.027-0.046,0.037-0.065l3.902-11.894h3.527l-5.764,17.854v6.889h-3.473v-6.889l-5.766-17.854H50.158z M34.234,36.729
		c0-2.399,2.039-4.29,4.645-4.29h2.043c2.609,0,4.652,1.89,4.652,4.29v16.645c0,2.38-2.086,4.294-4.652,4.294h-2.043
		c-2.564,0-4.645-1.914-4.645-4.294V36.729z M19.807,36.729c0-2.399,2.039-4.29,4.648-4.29h2.041c2.605,0,4.652,1.89,4.652,4.29
		v16.645c0,2.38-2.088,4.294-4.652,4.294h-2.041c-2.568,0-4.648-1.914-4.648-4.294V36.729z M16.721,57.368h-3.506V35.894h-1.943
		v-3.268h5.449V57.368z M80.932,69.99H19.064v-8.061h61.867V69.99z M88.723,37.336h-3.5V37.07c0-0.813-0.607-1.358-1.514-1.358
		h-1.844c-0.904,0-1.508,0.545-1.508,1.358v1.661c0,2.045,1.467,2.857,3.684,4.075l0.195,0.103c3.02,1.681,4.486,4.238,4.486,7.813
		v2.324c0,2.543-2.25,4.621-5.014,4.621h-1.844c-2.762,0-5.012-2.078-5.012-4.621v-4.747h3.504v4.747
		c0,0.812,0.604,1.363,1.508,1.363h1.844c0.906,0,1.514-0.551,1.514-1.363v-2.324c0-3.454-1.877-4.49-4.469-5.923l-0.037-0.029
		c-2.529-1.386-3.863-3.472-3.863-6.04V37.07c0-2.553,2.25-4.631,5.012-4.631h1.844c2.764,0,5.014,2.078,5.014,4.631V37.336z"/>
</g>
</svg>
